<svg xmlns="http://www.w3.org/2000/svg" width="65" height="65" viewBox="0 0 65 65"><defs><style>.a{fill:#02197f;}</style></defs><g transform="translate(0.155 0)"><path class="a" d="M32.5,65A32.5,32.5,0,0,1,9.519,9.519,32.5,32.5,0,1,1,55.481,55.481,32.287,32.287,0,0,1,32.5,65Zm0-49.834-1.018,0c-3.708,0-4.378.023-6.128.1a12.823,12.823,0,0,0-4.206.8,8.87,8.87,0,0,0-5.071,5.069,12.728,12.728,0,0,0-.8,4.206c-.086,1.887-.106,2.509-.106,7.148s.02,5.259.106,7.146a12.823,12.823,0,0,0,.8,4.206,8.884,8.884,0,0,0,5.069,5.071,12.823,12.823,0,0,0,4.206.8c1.887.086,2.509.106,7.148.106s5.259-.02,7.144-.106a12.834,12.834,0,0,0,4.21-.8,8.9,8.9,0,0,0,5.069-5.071,12.919,12.919,0,0,0,.8-4.206c.084-1.855.1-2.471.1-7.146s-.02-5.293-.1-7.148a12.919,12.919,0,0,0-.8-4.206,8.884,8.884,0,0,0-5.071-5.069,12.855,12.855,0,0,0-4.21-.8C37.757,15.186,37.136,15.166,32.5,15.166Z" transform="translate(-0.155 0)"/><path class="a" d="M14.073,28.142c-4.575,0-5.119-.018-6.936-.1a9.479,9.479,0,0,1-3.188-.592,5.269,5.269,0,0,1-1.973-1.284A5.322,5.322,0,0,1,.69,24.193,9.481,9.481,0,0,1,.1,21.005C.017,19.22,0,18.682,0,14.069S.017,8.92.1,7.135A9.48,9.48,0,0,1,.69,3.947,5.325,5.325,0,0,1,1.975,1.973,5.3,5.3,0,0,1,3.949.688,9.513,9.513,0,0,1,7.137.1C8.741.024,9.345,0,12.532,0l1.541,0c4.612,0,5.151.017,6.936.1A9.582,9.582,0,0,1,24.2.693a5.3,5.3,0,0,1,1.972,1.285,5.3,5.3,0,0,1,1.285,1.973,9.476,9.476,0,0,1,.59,3.186c.084,1.817.1,2.361.1,6.934s-.018,5.117-.1,6.934a9.475,9.475,0,0,1-.59,3.186A5.709,5.709,0,0,1,24.2,27.451a9.481,9.481,0,0,1-3.188.59C19.192,28.124,18.648,28.142,14.073,28.142Zm0-22.883a8.814,8.814,0,1,0,8.813,8.815A8.825,8.825,0,0,0,14.073,5.259Zm9.163-2.406-.006,0a1.486,1.486,0,1,0,.006,0Z" transform="translate(17.613 17.606)"/><path class="a" d="M11.444,5.722A5.722,5.722,0,1,1,5.722,0h0A5.722,5.722,0,0,1,11.444,5.722Z" transform="translate(25.963 25.96)"/></g></svg>