<svg xmlns="http://www.w3.org/2000/svg" width="17" height="21" viewBox="0 0 17 21"><defs><style>.a{fill:#02197f;}.b,.c{stroke:none;}.c{fill:#fff;}</style></defs><g class="a" transform="translate(17) rotate(90)"><path class="b" d="M 15.6209602355957 16.5 L 5.379039764404297 16.5 C 4.459680080413818 16.5 3.643470048904419 16.02063941955566 3.19566011428833 15.21771907806396 C 2.747849941253662 14.4147891998291 2.768929958343506 13.4684591293335 3.252049922943115 12.68626976013184 L 8.37300968170166 4.395199298858643 C 8.83180046081543 3.652389526367188 9.62693977355957 3.208929538726807 10.5 3.208929538726807 C 11.37306022644043 3.208929538726807 12.16819953918457 3.652389526367188 12.62699031829834 4.395199298858643 L 17.74794960021973 12.68626976013184 C 18.23106956481934 13.4684591293335 18.25214958190918 14.41479969024658 17.80434036254883 15.21771907806396 C 17.35652923583984 16.02063941955566 16.54031944274902 16.5 15.6209602355957 16.5 Z"/><path class="c" d="M 10.5 3.708929061889648 C 9.801540374755859 3.708929061889648 9.165439605712891 4.063699722290039 8.798410415649414 4.657939910888672 L 3.677450180053711 12.94900894165039 C 3.290960311889648 13.5747594833374 3.274089813232422 14.3318395614624 3.632339477539062 14.9741792678833 C 3.990579605102539 15.61650943756104 4.643560409545898 16 5.379039764404297 16 L 15.6209602355957 16 C 16.3564395904541 16 17.00942039489746 15.61650943756104 17.36766052246094 14.9741792678833 C 17.72591018676758 14.3318395614624 17.70903968811035 13.5747594833374 17.32254981994629 12.94900894165039 L 12.20158958435059 4.657939910888672 C 11.83456039428711 4.063699722290039 11.19845008850098 3.708929061889648 10.5 3.708929061889648 M 10.5 2.708927154541016 C 11.48311710357666 2.708927154541016 12.46623516082764 3.183433532714844 13.05239009857178 4.132449150085449 L 18.17334938049316 12.42351913452148 C 19.4078197479248 14.42218971252441 17.97011947631836 17 15.6209602355957 17 L 5.379039764404297 17 C 3.029880523681641 17 1.592180252075195 14.42218971252441 2.826650619506836 12.42351913452148 L 7.947609901428223 4.132449150085449 C 8.533764839172363 3.183433532714844 9.51688289642334 2.708927154541016 10.5 2.708927154541016 Z"/></g></svg>