<svg xmlns="http://www.w3.org/2000/svg" width="65" height="65" viewBox="0 0 65 65"><defs><style>.a{fill:#02197f;}</style></defs><g transform="translate(0 -0.302)"><path class="a" d="M32.5,65A32.5,32.5,0,0,1,9.519,9.519,32.5,32.5,0,1,1,55.481,55.481,32.287,32.287,0,0,1,32.5,65ZM17.292,28.738c-.035,0-.056.006-.063.018a8.189,8.189,0,0,0,.817,3.075,7.334,7.334,0,0,0,3.115,2.938l1.113.528-1.318.024c-.817,0-1.111.011-1.2.132-.058.076-.03.2.02.373.454,1.489,2.243,3.072,4.252,3.764l1.409.481-1.228.735a12.89,12.89,0,0,1-6.091,1.7,7.051,7.051,0,0,0-1.865.183c0,.236,2.788,1.52,4.387,2.02a18.371,18.371,0,0,0,5.417.792,18.926,18.926,0,0,0,9.5-2.49,19.854,19.854,0,0,0,7.57-8.9,23.773,23.773,0,0,0,1.547-6.885c0-1.064.075-1.2,1.342-2.455A15.034,15.034,0,0,0,47.6,23c.083-.16.133-.261.105-.307-.011-.018-.035-.027-.073-.027a5.062,5.062,0,0,0-.986.288,6.369,6.369,0,0,1-1.593.443c-.1,0-.161-.023-.183-.072-.049-.112.113-.362.525-.808a6.672,6.672,0,0,0,1.545-2.455c0-.013-.013-.02-.038-.02a2.289,2.289,0,0,0-.69.273,12.627,12.627,0,0,1-2,.781l-1.227.389-1.115-.757a9.067,9.067,0,0,0-1.932-1.009,7.064,7.064,0,0,0-1.817-.215,6.9,6.9,0,0,0-2.161.307,6.558,6.558,0,0,0-4.433,6.61L31.6,27.54,30.458,27.4a18.53,18.53,0,0,1-10.821-5.323l-1.5-1.492-.386,1.1A6.64,6.64,0,0,0,19.16,28.48c.411.436.58.691.532.8-.02.045-.074.067-.168.067a4.606,4.606,0,0,1-1.229-.34A4.687,4.687,0,0,0,17.292,28.738Z" transform="translate(0 0.302)"/></g></svg>