<svg xmlns="http://www.w3.org/2000/svg" width="65" height="65" viewBox="0 0 65 65"><defs><style>.a{fill:#02197f;}.b{fill:#646464;}</style></defs><g transform="translate(0.155 -0.302)"><path class="a" d="M32.5,65A32.5,32.5,0,0,1,9.519,9.519,32.5,32.5,0,1,1,55.481,55.481,32.287,32.287,0,0,1,32.5,65Zm0-44.416c-.108,0-10.872.009-13.544.744a4.4,4.4,0,0,0-3.064,3.146,47.721,47.721,0,0,0-.726,8.568,47.693,47.693,0,0,0,.726,8.566,4.4,4.4,0,0,0,3.064,3.148c2.673.736,13.436.744,13.544.744s10.872-.009,13.544-.744a4.4,4.4,0,0,0,3.064-3.148,47.811,47.811,0,0,0,.724-8.566,47.839,47.839,0,0,0-.724-8.568,4.4,4.4,0,0,0-3.064-3.146C43.372,20.593,32.608,20.584,32.5,20.584Z" transform="translate(-0.155 0.302)"/><path class="b" d="M0,0,8.583,5.365,0,10.729Z" transform="translate(28.967 27.391)"/></g></svg>